<mxfile host="app.diagrams.net" modified="2021-09-23T13:22:25.283Z" agent="5.0 (Macintosh)" etag="dEdNs1Fj6A8BZJp4i4Ma" version="15.3.0" type="github" pages="3">
  <diagram id="C5RBs43oDa-KdzZeNtuy" name="Login/Sign Up (Buyer)">
    <mxGraphModel dx="1598" dy="406" grid="1" gridSize="10" guides="1" tooltips="1" connect="1" arrows="1" fold="1" page="1" pageScale="1" pageWidth="827" pageHeight="1169" math="0" shadow="0">
      <root>
        <mxCell id="WIyWlLk6GJQsqaUBKTNV-0" />
        <mxCell id="WIyWlLk6GJQsqaUBKTNV-1" parent="WIyWlLk6GJQsqaUBKTNV-0" />
        <mxCell id="WIyWlLk6GJQsqaUBKTNV-4" value="Buyer" style="rounded=0;html=1;jettySize=auto;orthogonalLoop=1;fontSize=11;endArrow=block;endFill=0;endSize=8;strokeWidth=1;shadow=0;labelBackgroundColor=none;edgeStyle=orthogonalEdgeStyle;" parent="WIyWlLk6GJQsqaUBKTNV-1" source="WIyWlLk6GJQsqaUBKTNV-6" target="WIyWlLk6GJQsqaUBKTNV-11" edge="1">
          <mxGeometry y="20" relative="1" as="geometry">
            <mxPoint as="offset" />
            <mxPoint x="185" y="440" as="targetPoint" />
          </mxGeometry>
        </mxCell>
        <mxCell id="WIyWlLk6GJQsqaUBKTNV-5" value="Seller" style="edgeStyle=orthogonalEdgeStyle;rounded=0;html=1;jettySize=auto;orthogonalLoop=1;fontSize=11;endArrow=block;endFill=0;endSize=8;strokeWidth=1;shadow=0;labelBackgroundColor=none;entryX=0;entryY=0.5;entryDx=0;entryDy=0;" parent="WIyWlLk6GJQsqaUBKTNV-1" source="WIyWlLk6GJQsqaUBKTNV-6" target="WIyWlLk6GJQsqaUBKTNV-7" edge="1">
          <mxGeometry y="10" relative="1" as="geometry">
            <mxPoint as="offset" />
            <mxPoint x="330" y="340" as="targetPoint" />
          </mxGeometry>
        </mxCell>
        <mxCell id="WIyWlLk6GJQsqaUBKTNV-6" value="Signup as &lt;br&gt;&lt;div&gt;Buyer or Seller&lt;/div&gt;" style="rhombus;whiteSpace=wrap;html=1;shadow=0;fontFamily=Helvetica;fontSize=12;align=center;strokeWidth=1;spacing=6;spacingTop=-4;" parent="WIyWlLk6GJQsqaUBKTNV-1" vertex="1">
          <mxGeometry x="120" y="290" width="130" height="100" as="geometry" />
        </mxCell>
        <mxCell id="WIyWlLk6GJQsqaUBKTNV-7" value="Seller On Boarding" style="rounded=1;whiteSpace=wrap;html=1;fontSize=12;glass=0;strokeWidth=1;shadow=0;" parent="WIyWlLk6GJQsqaUBKTNV-1" vertex="1">
          <mxGeometry x="360" y="320" width="120" height="40" as="geometry" />
        </mxCell>
        <mxCell id="PiVfG4aHuvQCaqMQI1Gc-8" value="" style="edgeStyle=orthogonalEdgeStyle;rounded=0;orthogonalLoop=1;jettySize=auto;html=1;fontSize=15;" edge="1" parent="WIyWlLk6GJQsqaUBKTNV-1" source="WIyWlLk6GJQsqaUBKTNV-11" target="PiVfG4aHuvQCaqMQI1Gc-2">
          <mxGeometry relative="1" as="geometry" />
        </mxCell>
        <mxCell id="WIyWlLk6GJQsqaUBKTNV-11" value="&lt;div align=&quot;justify&quot;&gt;&lt;b&gt;1. Enter Personal Information&lt;/b&gt;&lt;br&gt;&lt;br&gt;&lt;ul&gt;&lt;li&gt;Name&lt;/li&gt;&lt;li&gt;Email Id&lt;/li&gt;&lt;li&gt;Mobile Number&lt;/li&gt;&lt;/ul&gt;&lt;/div&gt;" style="rounded=1;whiteSpace=wrap;html=1;fontSize=12;glass=0;strokeWidth=1;shadow=0;align=center;" parent="WIyWlLk6GJQsqaUBKTNV-1" vertex="1">
          <mxGeometry x="90" y="470" width="190" height="110" as="geometry" />
        </mxCell>
        <mxCell id="PiVfG4aHuvQCaqMQI1Gc-0" value="LOGIN LOGOUT" style="text;html=1;align=center;verticalAlign=middle;resizable=0;points=[];autosize=1;strokeColor=none;fillColor=none;fontStyle=1;fontSize=26;" vertex="1" parent="WIyWlLk6GJQsqaUBKTNV-1">
          <mxGeometry x="-515" y="25" width="220" height="40" as="geometry" />
        </mxCell>
        <mxCell id="PiVfG4aHuvQCaqMQI1Gc-1" value="On Boarding" style="text;html=1;align=center;verticalAlign=middle;resizable=0;points=[];autosize=1;strokeColor=none;fillColor=none;fontStyle=1;fontSize=15;" vertex="1" parent="WIyWlLk6GJQsqaUBKTNV-1">
          <mxGeometry x="220" y="220" width="110" height="20" as="geometry" />
        </mxCell>
        <mxCell id="PiVfG4aHuvQCaqMQI1Gc-21" style="edgeStyle=orthogonalEdgeStyle;rounded=0;orthogonalLoop=1;jettySize=auto;html=1;entryX=1;entryY=0.5;entryDx=0;entryDy=0;fontSize=15;exitX=0.5;exitY=1;exitDx=0;exitDy=0;" edge="1" parent="WIyWlLk6GJQsqaUBKTNV-1" source="PiVfG4aHuvQCaqMQI1Gc-2" target="PiVfG4aHuvQCaqMQI1Gc-19">
          <mxGeometry relative="1" as="geometry" />
        </mxCell>
        <mxCell id="PiVfG4aHuvQCaqMQI1Gc-2" value="&lt;div align=&quot;justify&quot;&gt;&lt;b&gt;2. Enter Company Information&lt;/b&gt;&lt;br&gt;&lt;br&gt;&lt;ul&gt;&lt;li&gt;Company Name&lt;/li&gt;&lt;li&gt;Company Type (From Manufacturer, Fabricator etc..)&lt;/li&gt;&lt;li&gt;Company Address, City, State, Pincode.&lt;/li&gt;&lt;li&gt;GST Number&lt;/li&gt;&lt;li&gt;Place of Supply&lt;/li&gt;&lt;/ul&gt;&lt;/div&gt;&lt;div align=&quot;justify&quot;&gt;&lt;b&gt;&lt;br&gt;&lt;/b&gt;&lt;/div&gt;" style="rounded=1;whiteSpace=wrap;html=1;fontSize=12;glass=0;strokeWidth=1;shadow=0;align=right;" vertex="1" parent="WIyWlLk6GJQsqaUBKTNV-1">
          <mxGeometry x="-5" y="640" width="380" height="170" as="geometry" />
        </mxCell>
        <mxCell id="PiVfG4aHuvQCaqMQI1Gc-10" style="edgeStyle=orthogonalEdgeStyle;rounded=0;orthogonalLoop=1;jettySize=auto;html=1;entryX=0.5;entryY=0;entryDx=0;entryDy=0;fontSize=15;" edge="1" parent="WIyWlLk6GJQsqaUBKTNV-1" source="PiVfG4aHuvQCaqMQI1Gc-6" target="WIyWlLk6GJQsqaUBKTNV-6">
          <mxGeometry relative="1" as="geometry" />
        </mxCell>
        <mxCell id="PiVfG4aHuvQCaqMQI1Gc-11" value="Sign Up" style="edgeLabel;html=1;align=center;verticalAlign=middle;resizable=0;points=[];fontSize=15;" vertex="1" connectable="0" parent="PiVfG4aHuvQCaqMQI1Gc-10">
          <mxGeometry x="0.1556" y="-1" relative="1" as="geometry">
            <mxPoint as="offset" />
          </mxGeometry>
        </mxCell>
        <mxCell id="PiVfG4aHuvQCaqMQI1Gc-13" value="" style="edgeStyle=orthogonalEdgeStyle;rounded=0;orthogonalLoop=1;jettySize=auto;html=1;fontSize=15;" edge="1" parent="WIyWlLk6GJQsqaUBKTNV-1" source="PiVfG4aHuvQCaqMQI1Gc-6" target="PiVfG4aHuvQCaqMQI1Gc-12">
          <mxGeometry relative="1" as="geometry" />
        </mxCell>
        <mxCell id="PiVfG4aHuvQCaqMQI1Gc-14" value="&lt;div&gt;Login &lt;br&gt;&lt;/div&gt;" style="edgeLabel;html=1;align=center;verticalAlign=middle;resizable=0;points=[];fontSize=15;" vertex="1" connectable="0" parent="PiVfG4aHuvQCaqMQI1Gc-13">
          <mxGeometry x="-0.3675" y="1" relative="1" as="geometry">
            <mxPoint as="offset" />
          </mxGeometry>
        </mxCell>
        <mxCell id="PiVfG4aHuvQCaqMQI1Gc-6" value="Login Or Sign Up" style="rhombus;whiteSpace=wrap;html=1;shadow=0;fontFamily=Helvetica;fontSize=12;align=center;strokeWidth=1;spacing=6;spacingTop=-4;" vertex="1" parent="WIyWlLk6GJQsqaUBKTNV-1">
          <mxGeometry x="-40" y="160" width="130" height="100" as="geometry" />
        </mxCell>
        <mxCell id="PiVfG4aHuvQCaqMQI1Gc-22" style="edgeStyle=orthogonalEdgeStyle;rounded=0;orthogonalLoop=1;jettySize=auto;html=1;fontSize=15;" edge="1" parent="WIyWlLk6GJQsqaUBKTNV-1" source="PiVfG4aHuvQCaqMQI1Gc-7" target="PiVfG4aHuvQCaqMQI1Gc-6">
          <mxGeometry relative="1" as="geometry" />
        </mxCell>
        <mxCell id="PiVfG4aHuvQCaqMQI1Gc-7" value="Website Landing Page" style="rounded=1;whiteSpace=wrap;html=1;fontSize=12;glass=0;strokeWidth=1;shadow=0;" vertex="1" parent="WIyWlLk6GJQsqaUBKTNV-1">
          <mxGeometry x="-35" y="80" width="120" height="40" as="geometry" />
        </mxCell>
        <mxCell id="PiVfG4aHuvQCaqMQI1Gc-16" value="" style="edgeStyle=orthogonalEdgeStyle;rounded=0;orthogonalLoop=1;jettySize=auto;html=1;fontSize=15;" edge="1" parent="WIyWlLk6GJQsqaUBKTNV-1" source="PiVfG4aHuvQCaqMQI1Gc-12" target="PiVfG4aHuvQCaqMQI1Gc-15">
          <mxGeometry relative="1" as="geometry" />
        </mxCell>
        <mxCell id="PiVfG4aHuvQCaqMQI1Gc-12" value="&lt;div&gt;Enter Email Id&lt;/div&gt;&lt;div&gt;Enter Password&lt;/div&gt;&lt;div&gt;(Forgot Password)&lt;/div&gt;" style="whiteSpace=wrap;html=1;shadow=0;strokeWidth=1;spacing=6;spacingTop=-4;" vertex="1" parent="WIyWlLk6GJQsqaUBKTNV-1">
          <mxGeometry x="-390" y="470" width="160" height="80" as="geometry" />
        </mxCell>
        <mxCell id="PiVfG4aHuvQCaqMQI1Gc-20" style="edgeStyle=orthogonalEdgeStyle;rounded=0;orthogonalLoop=1;jettySize=auto;html=1;entryX=0;entryY=0.5;entryDx=0;entryDy=0;fontSize=15;exitX=0.5;exitY=1;exitDx=0;exitDy=0;" edge="1" parent="WIyWlLk6GJQsqaUBKTNV-1" source="PiVfG4aHuvQCaqMQI1Gc-15" target="PiVfG4aHuvQCaqMQI1Gc-19">
          <mxGeometry relative="1" as="geometry" />
        </mxCell>
        <mxCell id="PiVfG4aHuvQCaqMQI1Gc-15" value="&lt;div&gt;Authenticate User&lt;/div&gt;" style="whiteSpace=wrap;html=1;shadow=0;strokeWidth=1;spacing=6;spacingTop=-4;" vertex="1" parent="WIyWlLk6GJQsqaUBKTNV-1">
          <mxGeometry x="-370" y="640" width="120" height="60" as="geometry" />
        </mxCell>
        <mxCell id="PiVfG4aHuvQCaqMQI1Gc-24" value="" style="edgeStyle=orthogonalEdgeStyle;rounded=0;orthogonalLoop=1;jettySize=auto;html=1;fontSize=15;" edge="1" parent="WIyWlLk6GJQsqaUBKTNV-1" source="PiVfG4aHuvQCaqMQI1Gc-19">
          <mxGeometry relative="1" as="geometry">
            <mxPoint x="-120" y="1050" as="targetPoint" />
          </mxGeometry>
        </mxCell>
        <mxCell id="PiVfG4aHuvQCaqMQI1Gc-19" value="User Logged In" style="whiteSpace=wrap;html=1;shadow=0;strokeWidth=1;spacing=6;spacingTop=-4;" vertex="1" parent="WIyWlLk6GJQsqaUBKTNV-1">
          <mxGeometry x="-180" y="910" width="120" height="60" as="geometry" />
        </mxCell>
        <mxCell id="geqYSj80Ft0rB-FkhwU4-1" value="" style="edgeStyle=orthogonalEdgeStyle;rounded=0;orthogonalLoop=1;jettySize=auto;html=1;fontSize=17;" edge="1" parent="WIyWlLk6GJQsqaUBKTNV-1" source="PiVfG4aHuvQCaqMQI1Gc-25" target="geqYSj80Ft0rB-FkhwU4-0">
          <mxGeometry relative="1" as="geometry" />
        </mxCell>
        <mxCell id="geqYSj80Ft0rB-FkhwU4-3" value="" style="edgeStyle=orthogonalEdgeStyle;rounded=0;orthogonalLoop=1;jettySize=auto;html=1;fontSize=17;" edge="1" parent="WIyWlLk6GJQsqaUBKTNV-1" source="PiVfG4aHuvQCaqMQI1Gc-25" target="geqYSj80Ft0rB-FkhwU4-2">
          <mxGeometry relative="1" as="geometry" />
        </mxCell>
        <mxCell id="PiVfG4aHuvQCaqMQI1Gc-25" value="&lt;div&gt;&lt;font size=&quot;1&quot;&gt;&lt;b style=&quot;font-size: 15px&quot;&gt;MENU&lt;/b&gt;&lt;/font&gt;&lt;/div&gt;&lt;div align=&quot;left&quot;&gt;&lt;ol&gt;&lt;li&gt;&lt;font style=&quot;font-size: 15px&quot;&gt;DashBoard&lt;/font&gt;&lt;/li&gt;&lt;li&gt;&lt;font style=&quot;font-size: 15px&quot;&gt;Request For Quotation&lt;/font&gt;&lt;/li&gt;&lt;li&gt;&lt;font style=&quot;font-size: 15px&quot;&gt;Order&lt;/font&gt;&lt;/li&gt;&lt;li&gt;&lt;font style=&quot;font-size: 15px&quot;&gt;Profile &lt;br&gt;&lt;/font&gt;&lt;/li&gt;&lt;li&gt;&lt;font style=&quot;font-size: 15px&quot;&gt;Customer Support&lt;br&gt;&lt;/font&gt;&lt;/li&gt;&lt;/ol&gt;&lt;/div&gt;" style="whiteSpace=wrap;html=1;shadow=0;strokeWidth=1;spacing=6;spacingTop=-4;" vertex="1" parent="WIyWlLk6GJQsqaUBKTNV-1">
          <mxGeometry x="-235" y="1050" width="230" height="160" as="geometry" />
        </mxCell>
        <mxCell id="yYpFFn708WzEoICuWJN3-0" value="&lt;font style=&quot;font-size: 18px&quot;&gt;Seller On Boarding will be Same as buyer&lt;br&gt;&lt;/font&gt;" style="text;html=1;align=center;verticalAlign=middle;resizable=0;points=[];autosize=1;strokeColor=none;fillColor=none;fontStyle=1;fontSize=15;" vertex="1" parent="WIyWlLk6GJQsqaUBKTNV-1">
          <mxGeometry x="-540" y="80" width="370" height="20" as="geometry" />
        </mxCell>
        <mxCell id="geqYSj80Ft0rB-FkhwU4-0" value="&lt;div&gt;DASHBOARD&lt;/div&gt;&lt;div&gt;&lt;br&gt;&lt;/div&gt;" style="whiteSpace=wrap;html=1;shadow=0;strokeWidth=1;spacing=6;spacingTop=-4;" vertex="1" parent="WIyWlLk6GJQsqaUBKTNV-1">
          <mxGeometry x="-240" y="1350" width="240" height="140" as="geometry" />
        </mxCell>
        <mxCell id="geqYSj80Ft0rB-FkhwU4-2" value="&lt;div&gt;Profile&lt;/div&gt;&lt;div&gt;Edit &lt;br&gt; &lt;/div&gt;" style="whiteSpace=wrap;html=1;shadow=0;strokeWidth=1;spacing=6;spacingTop=-4;" vertex="1" parent="WIyWlLk6GJQsqaUBKTNV-1">
          <mxGeometry x="230" y="1072.5" width="160" height="115" as="geometry" />
        </mxCell>
      </root>
    </mxGraphModel>
  </diagram>
  <diagram id="2au8KlPaK4EXy2q8sCFx" name="RFQ (Buyer)">
    <mxGraphModel dx="3645" dy="1470" grid="1" gridSize="10" guides="1" tooltips="1" connect="1" arrows="1" fold="1" page="1" pageScale="1" pageWidth="850" pageHeight="1100" math="0" shadow="0">
      <root>
        <mxCell id="z65JshARtKWkfJrSgLsk-0" />
        <mxCell id="z65JshARtKWkfJrSgLsk-1" parent="z65JshARtKWkfJrSgLsk-0" />
        <mxCell id="NKvtTAD3ne4Y98fWtQp3-0" value="Request For Quotation (RFQ)" style="text;html=1;align=center;verticalAlign=middle;resizable=0;points=[];autosize=1;strokeColor=none;fillColor=none;fontStyle=1;fontSize=26;" vertex="1" parent="z65JshARtKWkfJrSgLsk-1">
          <mxGeometry x="-530" y="40" width="380" height="40" as="geometry" />
        </mxCell>
        <mxCell id="NKvtTAD3ne4Y98fWtQp3-3" value="" style="edgeStyle=orthogonalEdgeStyle;rounded=0;orthogonalLoop=1;jettySize=auto;html=1;fontSize=26;" edge="1" parent="z65JshARtKWkfJrSgLsk-1" source="NKvtTAD3ne4Y98fWtQp3-1" target="NKvtTAD3ne4Y98fWtQp3-2">
          <mxGeometry relative="1" as="geometry" />
        </mxCell>
        <mxCell id="NKvtTAD3ne4Y98fWtQp3-1" value="Request for Quotation" style="rounded=1;whiteSpace=wrap;html=1;fontSize=12;glass=0;strokeWidth=1;shadow=0;" vertex="1" parent="z65JshARtKWkfJrSgLsk-1">
          <mxGeometry x="-60" y="95" width="120" height="40" as="geometry" />
        </mxCell>
        <mxCell id="NKvtTAD3ne4Y98fWtQp3-18" value="" style="edgeStyle=orthogonalEdgeStyle;rounded=0;orthogonalLoop=1;jettySize=auto;html=1;fontSize=26;" edge="1" parent="z65JshARtKWkfJrSgLsk-1" source="NKvtTAD3ne4Y98fWtQp3-2" target="NKvtTAD3ne4Y98fWtQp3-17">
          <mxGeometry relative="1" as="geometry" />
        </mxCell>
        <mxCell id="NKvtTAD3ne4Y98fWtQp3-30" value="" style="edgeStyle=orthogonalEdgeStyle;rounded=0;orthogonalLoop=1;jettySize=auto;html=1;fontSize=26;" edge="1" parent="z65JshARtKWkfJrSgLsk-1" source="NKvtTAD3ne4Y98fWtQp3-2" target="NKvtTAD3ne4Y98fWtQp3-29">
          <mxGeometry relative="1" as="geometry" />
        </mxCell>
        <mxCell id="NKvtTAD3ne4Y98fWtQp3-2" value="&lt;div&gt;1. Create&lt;/div&gt;&lt;div&gt;2. List&lt;/div&gt;&lt;div&gt;3. Detail&lt;br&gt;&lt;/div&gt;" style="rhombus;whiteSpace=wrap;html=1;rounded=1;shadow=0;strokeWidth=1;glass=0;" vertex="1" parent="z65JshARtKWkfJrSgLsk-1">
          <mxGeometry x="-80" y="195" width="160" height="95" as="geometry" />
        </mxCell>
        <mxCell id="NKvtTAD3ne4Y98fWtQp3-8" value="" style="edgeStyle=orthogonalEdgeStyle;rounded=0;orthogonalLoop=1;jettySize=auto;html=1;fontSize=26;" edge="1" parent="z65JshARtKWkfJrSgLsk-1" source="NKvtTAD3ne4Y98fWtQp3-4" target="NKvtTAD3ne4Y98fWtQp3-7">
          <mxGeometry relative="1" as="geometry" />
        </mxCell>
        <mxCell id="NKvtTAD3ne4Y98fWtQp3-4" value="&lt;div align=&quot;center&quot;&gt;Enter Product Name&lt;br&gt;&lt;font style=&quot;font-size: 10px&quot;&gt;(Drop Down List&lt;/font&gt;&lt;br&gt;&lt;font style=&quot;font-size: 10px&quot;&gt;Stainless Stell, Mild Stell, Carbon Steel etc..)&lt;/font&gt;&lt;br&gt;&lt;font style=&quot;font-size: 10px&quot;&gt;Text Box&lt;/font&gt;&lt;br&gt;&lt;/div&gt;" style="whiteSpace=wrap;html=1;rounded=1;shadow=0;strokeWidth=1;glass=0;" vertex="1" parent="z65JshARtKWkfJrSgLsk-1">
          <mxGeometry x="-360" y="370" width="150" height="87.5" as="geometry" />
        </mxCell>
        <mxCell id="NKvtTAD3ne4Y98fWtQp3-10" value="" style="edgeStyle=orthogonalEdgeStyle;rounded=0;orthogonalLoop=1;jettySize=auto;html=1;fontSize=26;" edge="1" parent="z65JshARtKWkfJrSgLsk-1" source="NKvtTAD3ne4Y98fWtQp3-7" target="NKvtTAD3ne4Y98fWtQp3-9">
          <mxGeometry relative="1" as="geometry" />
        </mxCell>
        <mxCell id="NKvtTAD3ne4Y98fWtQp3-7" value="&lt;div align=&quot;center&quot;&gt;Enter or Select Shape &lt;br&gt;&lt;font style=&quot;font-size: 10px&quot;&gt;(Depends upon the Product Selected)&lt;/font&gt;&lt;br&gt;&lt;/div&gt;&lt;div&gt;&lt;br&gt;&lt;/div&gt;&lt;div&gt;&lt;font style=&quot;font-size: 10px&quot;&gt;Text box with selected beside&lt;/font&gt;&lt;br&gt;&lt;/div&gt;" style="rounded=1;whiteSpace=wrap;html=1;shadow=0;strokeWidth=1;glass=0;align=center;" vertex="1" parent="z65JshARtKWkfJrSgLsk-1">
          <mxGeometry x="-390" y="517.5" width="210" height="90" as="geometry" />
        </mxCell>
        <mxCell id="NKvtTAD3ne4Y98fWtQp3-12" value="" style="edgeStyle=orthogonalEdgeStyle;rounded=0;orthogonalLoop=1;jettySize=auto;html=1;fontSize=26;" edge="1" parent="z65JshARtKWkfJrSgLsk-1" source="NKvtTAD3ne4Y98fWtQp3-9" target="NKvtTAD3ne4Y98fWtQp3-11">
          <mxGeometry relative="1" as="geometry" />
        </mxCell>
        <mxCell id="NKvtTAD3ne4Y98fWtQp3-9" value="&lt;div align=&quot;center&quot;&gt;Enter or Select Size &lt;br&gt;&lt;font style=&quot;font-size: 10px&quot;&gt;(Depends upon the Shape Selected)&lt;/font&gt;&lt;br&gt;&lt;/div&gt;&lt;div&gt;&lt;br&gt;&lt;/div&gt;&lt;div&gt;&lt;font style=&quot;font-size: 10px&quot;&gt;Text box with selected beside&lt;/font&gt;&lt;br&gt;&lt;/div&gt;" style="rounded=1;whiteSpace=wrap;html=1;shadow=0;strokeWidth=1;glass=0;align=center;" vertex="1" parent="z65JshARtKWkfJrSgLsk-1">
          <mxGeometry x="-390" y="647.5" width="210" height="90" as="geometry" />
        </mxCell>
        <mxCell id="NKvtTAD3ne4Y98fWtQp3-16" value="" style="edgeStyle=orthogonalEdgeStyle;rounded=0;orthogonalLoop=1;jettySize=auto;html=1;fontSize=26;" edge="1" parent="z65JshARtKWkfJrSgLsk-1" source="NKvtTAD3ne4Y98fWtQp3-11" target="NKvtTAD3ne4Y98fWtQp3-13">
          <mxGeometry relative="1" as="geometry" />
        </mxCell>
        <mxCell id="NKvtTAD3ne4Y98fWtQp3-11" value="&lt;div align=&quot;center&quot;&gt;Select Grade&lt;br&gt;&lt;font style=&quot;font-size: 10px&quot;&gt;(Depends upon the Product Name)&lt;/font&gt;&lt;br&gt;&lt;/div&gt;&lt;div&gt;&lt;br&gt;&lt;/div&gt;&lt;div&gt;&lt;font style=&quot;font-size: 10px&quot;&gt;Text box with selected beside&lt;/font&gt;&lt;br&gt;&lt;/div&gt;" style="rounded=1;whiteSpace=wrap;html=1;shadow=0;strokeWidth=1;glass=0;align=center;" vertex="1" parent="z65JshARtKWkfJrSgLsk-1">
          <mxGeometry x="-390" y="777.5" width="210" height="90" as="geometry" />
        </mxCell>
        <mxCell id="NKvtTAD3ne4Y98fWtQp3-15" value="" style="edgeStyle=orthogonalEdgeStyle;rounded=0;orthogonalLoop=1;jettySize=auto;html=1;fontSize=26;" edge="1" parent="z65JshARtKWkfJrSgLsk-1" source="NKvtTAD3ne4Y98fWtQp3-13" target="NKvtTAD3ne4Y98fWtQp3-14">
          <mxGeometry relative="1" as="geometry" />
        </mxCell>
        <mxCell id="NKvtTAD3ne4Y98fWtQp3-13" value="&lt;div align=&quot;center&quot;&gt;Select Finish &lt;br&gt;&lt;/div&gt;&lt;div&gt;&lt;br&gt;&lt;/div&gt;&lt;font style=&quot;font-size: 10px&quot;&gt;Text box with selected beside&lt;/font&gt;" style="rounded=1;whiteSpace=wrap;html=1;shadow=0;strokeWidth=1;glass=0;align=center;" vertex="1" parent="z65JshARtKWkfJrSgLsk-1">
          <mxGeometry x="-390" y="897.5" width="210" height="90" as="geometry" />
        </mxCell>
        <mxCell id="NKvtTAD3ne4Y98fWtQp3-34" value="" style="edgeStyle=orthogonalEdgeStyle;rounded=0;orthogonalLoop=1;jettySize=auto;html=1;fontSize=26;" edge="1" parent="z65JshARtKWkfJrSgLsk-1" source="NKvtTAD3ne4Y98fWtQp3-14" target="NKvtTAD3ne4Y98fWtQp3-33">
          <mxGeometry relative="1" as="geometry" />
        </mxCell>
        <mxCell id="NKvtTAD3ne4Y98fWtQp3-14" value="&lt;div align=&quot;center&quot;&gt;Enter Quantity &lt;br&gt;&lt;/div&gt;&lt;div&gt;&lt;br&gt;&lt;/div&gt;&lt;font style=&quot;font-size: 10px&quot;&gt;Text box with Kg or Nos Beside&lt;br&gt;&lt;/font&gt;" style="rounded=1;whiteSpace=wrap;html=1;shadow=0;strokeWidth=1;glass=0;align=center;" vertex="1" parent="z65JshARtKWkfJrSgLsk-1">
          <mxGeometry x="-390" y="1027.5" width="210" height="90" as="geometry" />
        </mxCell>
        <mxCell id="NKvtTAD3ne4Y98fWtQp3-21" value="" style="edgeStyle=orthogonalEdgeStyle;rounded=0;orthogonalLoop=1;jettySize=auto;html=1;fontSize=26;" edge="1" parent="z65JshARtKWkfJrSgLsk-1" source="NKvtTAD3ne4Y98fWtQp3-17" target="NKvtTAD3ne4Y98fWtQp3-20">
          <mxGeometry relative="1" as="geometry" />
        </mxCell>
        <mxCell id="NKvtTAD3ne4Y98fWtQp3-17" value="Create RFQ" style="whiteSpace=wrap;html=1;rounded=1;shadow=0;strokeWidth=1;glass=0;" vertex="1" parent="z65JshARtKWkfJrSgLsk-1">
          <mxGeometry x="-345" y="212.5" width="120" height="60" as="geometry" />
        </mxCell>
        <mxCell id="NKvtTAD3ne4Y98fWtQp3-22" value="" style="edgeStyle=orthogonalEdgeStyle;rounded=0;orthogonalLoop=1;jettySize=auto;html=1;fontSize=26;" edge="1" parent="z65JshARtKWkfJrSgLsk-1" source="NKvtTAD3ne4Y98fWtQp3-20" target="NKvtTAD3ne4Y98fWtQp3-4">
          <mxGeometry relative="1" as="geometry" />
        </mxCell>
        <mxCell id="NKvtTAD3ne4Y98fWtQp3-20" value="Add a Product" style="whiteSpace=wrap;html=1;rounded=1;shadow=0;strokeWidth=1;glass=0;" vertex="1" parent="z65JshARtKWkfJrSgLsk-1">
          <mxGeometry x="-337.5" y="310" width="105" height="40" as="geometry" />
        </mxCell>
        <mxCell id="NKvtTAD3ne4Y98fWtQp3-25" style="edgeStyle=orthogonalEdgeStyle;rounded=0;orthogonalLoop=1;jettySize=auto;html=1;fontSize=26;entryX=0;entryY=0.5;entryDx=0;entryDy=0;" edge="1" parent="z65JshARtKWkfJrSgLsk-1" source="NKvtTAD3ne4Y98fWtQp3-23" target="NKvtTAD3ne4Y98fWtQp3-29">
          <mxGeometry relative="1" as="geometry">
            <mxPoint x="-110" y="360" as="targetPoint" />
          </mxGeometry>
        </mxCell>
        <mxCell id="NKvtTAD3ne4Y98fWtQp3-28" value="&lt;font style=&quot;font-size: 14px&quot;&gt;Send RFQ&lt;br&gt;&lt;/font&gt;" style="edgeLabel;html=1;align=center;verticalAlign=middle;resizable=0;points=[];fontSize=26;" vertex="1" connectable="0" parent="NKvtTAD3ne4Y98fWtQp3-25">
          <mxGeometry x="-0.9136" y="-4" relative="1" as="geometry">
            <mxPoint as="offset" />
          </mxGeometry>
        </mxCell>
        <mxCell id="NKvtTAD3ne4Y98fWtQp3-26" style="edgeStyle=orthogonalEdgeStyle;rounded=0;orthogonalLoop=1;jettySize=auto;html=1;entryX=0;entryY=0.5;entryDx=0;entryDy=0;fontSize=26;" edge="1" parent="z65JshARtKWkfJrSgLsk-1" source="NKvtTAD3ne4Y98fWtQp3-23" target="NKvtTAD3ne4Y98fWtQp3-20">
          <mxGeometry relative="1" as="geometry">
            <Array as="points">
              <mxPoint x="-460" y="1379" />
              <mxPoint x="-460" y="330" />
            </Array>
          </mxGeometry>
        </mxCell>
        <mxCell id="NKvtTAD3ne4Y98fWtQp3-27" value="&lt;font style=&quot;font-size: 15px&quot;&gt;Add Product&lt;br&gt;&lt;/font&gt;" style="edgeLabel;html=1;align=center;verticalAlign=middle;resizable=0;points=[];fontSize=26;" vertex="1" connectable="0" parent="NKvtTAD3ne4Y98fWtQp3-26">
          <mxGeometry x="-0.8922" relative="1" as="geometry">
            <mxPoint x="-31" y="-9" as="offset" />
          </mxGeometry>
        </mxCell>
        <mxCell id="NKvtTAD3ne4Y98fWtQp3-23" value="&lt;div&gt;Add Product &lt;br&gt;&lt;/div&gt;&lt;div&gt;Or &lt;br&gt;&lt;/div&gt;&lt;div&gt;Send RFQ&lt;br&gt;&lt;/div&gt;" style="rhombus;whiteSpace=wrap;html=1;rounded=1;shadow=0;strokeWidth=1;glass=0;" vertex="1" parent="z65JshARtKWkfJrSgLsk-1">
          <mxGeometry x="-350" y="1330" width="130" height="97.5" as="geometry" />
        </mxCell>
        <mxCell id="NKvtTAD3ne4Y98fWtQp3-32" value="" style="edgeStyle=orthogonalEdgeStyle;rounded=0;orthogonalLoop=1;jettySize=auto;html=1;fontSize=26;" edge="1" parent="z65JshARtKWkfJrSgLsk-1" source="NKvtTAD3ne4Y98fWtQp3-29" target="NKvtTAD3ne4Y98fWtQp3-31">
          <mxGeometry relative="1" as="geometry" />
        </mxCell>
        <mxCell id="NKvtTAD3ne4Y98fWtQp3-29" value="LIST ALL RFQ" style="whiteSpace=wrap;html=1;rounded=1;shadow=0;strokeWidth=1;glass=0;" vertex="1" parent="z65JshARtKWkfJrSgLsk-1">
          <mxGeometry x="-60" y="340" width="120" height="60" as="geometry" />
        </mxCell>
        <mxCell id="NKvtTAD3ne4Y98fWtQp3-37" value="" style="edgeStyle=orthogonalEdgeStyle;rounded=0;orthogonalLoop=1;jettySize=auto;html=1;fontSize=26;" edge="1" parent="z65JshARtKWkfJrSgLsk-1" source="NKvtTAD3ne4Y98fWtQp3-31" target="NKvtTAD3ne4Y98fWtQp3-36">
          <mxGeometry relative="1" as="geometry" />
        </mxCell>
        <mxCell id="NKvtTAD3ne4Y98fWtQp3-38" value="RFQ Details" style="edgeLabel;html=1;align=center;verticalAlign=middle;resizable=0;points=[];fontSize=17;" vertex="1" connectable="0" parent="NKvtTAD3ne4Y98fWtQp3-37">
          <mxGeometry x="0.4432" relative="1" as="geometry">
            <mxPoint x="-35" as="offset" />
          </mxGeometry>
        </mxCell>
        <mxCell id="NKvtTAD3ne4Y98fWtQp3-31" value="&lt;div align=&quot;center&quot;&gt;RFQ ID (Format mentioned)&lt;/div&gt;&lt;div align=&quot;center&quot;&gt;&lt;br&gt;&lt;/div&gt;&lt;div align=&quot;center&quot;&gt;Number of Products&lt;/div&gt;&lt;div align=&quot;center&quot;&gt;&lt;br&gt;&lt;/div&gt;&lt;div align=&quot;center&quot;&gt;Status of RFQ&lt;br&gt;&lt;/div&gt;&lt;div align=&quot;center&quot;&gt;&lt;br&gt;&lt;/div&gt;&lt;div align=&quot;center&quot;&gt;&lt;br&gt;&lt;/div&gt;" style="whiteSpace=wrap;html=1;rounded=1;shadow=0;strokeWidth=1;glass=0;align=center;" vertex="1" parent="z65JshARtKWkfJrSgLsk-1">
          <mxGeometry x="-95" y="497.5" width="190" height="132.5" as="geometry" />
        </mxCell>
        <mxCell id="NKvtTAD3ne4Y98fWtQp3-35" value="" style="edgeStyle=orthogonalEdgeStyle;rounded=0;orthogonalLoop=1;jettySize=auto;html=1;fontSize=26;" edge="1" parent="z65JshARtKWkfJrSgLsk-1" source="NKvtTAD3ne4Y98fWtQp3-33" target="NKvtTAD3ne4Y98fWtQp3-23">
          <mxGeometry relative="1" as="geometry" />
        </mxCell>
        <mxCell id="NKvtTAD3ne4Y98fWtQp3-33" value="Select Prefered Location(Optional)" style="whiteSpace=wrap;html=1;rounded=1;shadow=0;strokeWidth=1;glass=0;" vertex="1" parent="z65JshARtKWkfJrSgLsk-1">
          <mxGeometry x="-345" y="1180" width="120" height="60" as="geometry" />
        </mxCell>
        <mxCell id="NKvtTAD3ne4Y98fWtQp3-40" value="" style="edgeStyle=orthogonalEdgeStyle;rounded=0;orthogonalLoop=1;jettySize=auto;html=1;fontSize=17;" edge="1" parent="z65JshARtKWkfJrSgLsk-1" source="NKvtTAD3ne4Y98fWtQp3-36" target="NKvtTAD3ne4Y98fWtQp3-39">
          <mxGeometry relative="1" as="geometry" />
        </mxCell>
        <mxCell id="NKvtTAD3ne4Y98fWtQp3-36" value="L1 prices will be reflected on Pricing column of each Products." style="whiteSpace=wrap;html=1;rounded=1;shadow=0;strokeWidth=1;glass=0;" vertex="1" parent="z65JshARtKWkfJrSgLsk-1">
          <mxGeometry x="300" y="508.75" width="210" height="121.25" as="geometry" />
        </mxCell>
        <mxCell id="NKvtTAD3ne4Y98fWtQp3-42" value="" style="edgeStyle=orthogonalEdgeStyle;rounded=0;orthogonalLoop=1;jettySize=auto;html=1;fontSize=17;" edge="1" parent="z65JshARtKWkfJrSgLsk-1" source="NKvtTAD3ne4Y98fWtQp3-39" target="NKvtTAD3ne4Y98fWtQp3-43">
          <mxGeometry relative="1" as="geometry">
            <mxPoint x="410" y="870" as="targetPoint" />
          </mxGeometry>
        </mxCell>
        <mxCell id="NKvtTAD3ne4Y98fWtQp3-39" value="Negotiation (Need Confirmation)" style="rounded=1;whiteSpace=wrap;html=1;shadow=0;strokeWidth=1;glass=0;" vertex="1" parent="z65JshARtKWkfJrSgLsk-1">
          <mxGeometry x="332.5" y="700.01" width="145" height="90" as="geometry" />
        </mxCell>
        <mxCell id="NKvtTAD3ne4Y98fWtQp3-46" value="" style="edgeStyle=orthogonalEdgeStyle;rounded=0;orthogonalLoop=1;jettySize=auto;html=1;fontSize=17;" edge="1" parent="z65JshARtKWkfJrSgLsk-1" source="NKvtTAD3ne4Y98fWtQp3-43" target="NKvtTAD3ne4Y98fWtQp3-45">
          <mxGeometry relative="1" as="geometry" />
        </mxCell>
        <mxCell id="NKvtTAD3ne4Y98fWtQp3-49" value="Trumac Logistics" style="edgeLabel;html=1;align=center;verticalAlign=middle;resizable=0;points=[];fontSize=17;" vertex="1" connectable="0" parent="NKvtTAD3ne4Y98fWtQp3-46">
          <mxGeometry x="-0.0284" y="2" relative="1" as="geometry">
            <mxPoint as="offset" />
          </mxGeometry>
        </mxCell>
        <mxCell id="NKvtTAD3ne4Y98fWtQp3-48" value="Self" style="edgeStyle=orthogonalEdgeStyle;rounded=0;orthogonalLoop=1;jettySize=auto;html=1;fontSize=17;" edge="1" parent="z65JshARtKWkfJrSgLsk-1" source="NKvtTAD3ne4Y98fWtQp3-43" target="NKvtTAD3ne4Y98fWtQp3-47">
          <mxGeometry relative="1" as="geometry" />
        </mxCell>
        <mxCell id="NKvtTAD3ne4Y98fWtQp3-43" value="&lt;div&gt;Logistics&lt;/div&gt;&lt;div&gt;(Self or Trumac Logistics)&lt;br&gt;&lt;/div&gt;" style="rhombus;whiteSpace=wrap;html=1;rounded=1;shadow=0;strokeWidth=1;glass=0;" vertex="1" parent="z65JshARtKWkfJrSgLsk-1">
          <mxGeometry x="295" y="867.5" width="220" height="180" as="geometry" />
        </mxCell>
        <mxCell id="NKvtTAD3ne4Y98fWtQp3-51" value="" style="edgeStyle=orthogonalEdgeStyle;rounded=0;orthogonalLoop=1;jettySize=auto;html=1;fontSize=17;" edge="1" parent="z65JshARtKWkfJrSgLsk-1" source="NKvtTAD3ne4Y98fWtQp3-45" target="NKvtTAD3ne4Y98fWtQp3-50">
          <mxGeometry relative="1" as="geometry" />
        </mxCell>
        <mxCell id="NKvtTAD3ne4Y98fWtQp3-45" value="Select Rates from Different Trumac Logistics Partner&lt;br&gt;&lt;ol&gt;&lt;li&gt;Name of Company&lt;/li&gt;&lt;li&gt;Costing as per KG&lt;/li&gt;&lt;li&gt;Mobile Number&lt;/li&gt;&lt;li&gt;Address/Location&lt;/li&gt;&lt;/ol&gt;&lt;div&gt;&lt;br&gt;&lt;/div&gt;" style="rounded=1;whiteSpace=wrap;html=1;shadow=0;strokeWidth=1;glass=0;" vertex="1" parent="z65JshARtKWkfJrSgLsk-1">
          <mxGeometry x="270" y="1170" width="270" height="160" as="geometry" />
        </mxCell>
        <mxCell id="NKvtTAD3ne4Y98fWtQp3-52" style="edgeStyle=orthogonalEdgeStyle;rounded=0;orthogonalLoop=1;jettySize=auto;html=1;entryX=0.5;entryY=0;entryDx=0;entryDy=0;fontSize=17;" edge="1" parent="z65JshARtKWkfJrSgLsk-1" source="NKvtTAD3ne4Y98fWtQp3-47" target="NKvtTAD3ne4Y98fWtQp3-50">
          <mxGeometry relative="1" as="geometry" />
        </mxCell>
        <mxCell id="NKvtTAD3ne4Y98fWtQp3-47" value="Provide Logistics Company Details &lt;br&gt;&lt;ol&gt;&lt;li&gt;Company Name&lt;/li&gt;&lt;li&gt;Mobile Number &lt;/li&gt;&lt;/ol&gt;" style="rounded=1;whiteSpace=wrap;html=1;shadow=0;strokeWidth=1;glass=0;" vertex="1" parent="z65JshARtKWkfJrSgLsk-1">
          <mxGeometry x="-60" y="1217.5" width="225" height="112.5" as="geometry" />
        </mxCell>
        <mxCell id="NKvtTAD3ne4Y98fWtQp3-54" value="" style="edgeStyle=orthogonalEdgeStyle;rounded=0;orthogonalLoop=1;jettySize=auto;html=1;fontSize=17;" edge="1" parent="z65JshARtKWkfJrSgLsk-1" source="NKvtTAD3ne4Y98fWtQp3-50" target="NKvtTAD3ne4Y98fWtQp3-53">
          <mxGeometry relative="1" as="geometry" />
        </mxCell>
        <mxCell id="NKvtTAD3ne4Y98fWtQp3-50" value="&lt;font style=&quot;font-size: 14px&quot;&gt;Total Costing&lt;/font&gt;&lt;br&gt;&lt;div&gt;Cost of Product&lt;/div&gt;&lt;div&gt;+Logistics Cost if Any&lt;/div&gt;&lt;div&gt;+Commision (Not be displayed)&lt;/div&gt;&lt;div&gt;+ GST (18%)&lt;br&gt;&lt;/div&gt;" style="whiteSpace=wrap;html=1;rounded=1;shadow=0;strokeWidth=1;glass=0;" vertex="1" parent="z65JshARtKWkfJrSgLsk-1">
          <mxGeometry x="90" y="1520" width="280" height="130" as="geometry" />
        </mxCell>
        <mxCell id="NKvtTAD3ne4Y98fWtQp3-56" style="edgeStyle=orthogonalEdgeStyle;rounded=0;orthogonalLoop=1;jettySize=auto;html=1;fontSize=17;" edge="1" parent="z65JshARtKWkfJrSgLsk-1" source="NKvtTAD3ne4Y98fWtQp3-53" target="NKvtTAD3ne4Y98fWtQp3-55">
          <mxGeometry relative="1" as="geometry" />
        </mxCell>
        <mxCell id="NKvtTAD3ne4Y98fWtQp3-53" value="&lt;font style=&quot;font-size: 15px&quot;&gt;Payment terms&lt;/font&gt;&lt;font style=&quot;font-size: 15px&quot;&gt;&lt;br&gt;&lt;/font&gt;&lt;b style=&quot;font-size: 15px&quot;&gt;&lt;font style=&quot;font-size: 15px&quot;&gt;&lt;br&gt;1&lt;/font&gt;. Online Payment using Payment Gateway &lt;/b&gt;&lt;br&gt;&lt;div&gt;(Debit Card, Credit Card, NetBanking Below 5,00,000/-)&lt;/div&gt;&lt;div&gt;&lt;br&gt;&lt;/div&gt;&lt;div&gt;&lt;br&gt;&lt;/div&gt;&lt;div&gt;&lt;b&gt;2. Manual Payment&lt;/b&gt;&lt;br&gt;&lt;/div&gt;&lt;div&gt;Transfer the amount to provided A/c Number &amp;amp; Confirm the same by Providing Transaction&lt;br&gt;&lt;/div&gt;" style="rounded=1;whiteSpace=wrap;html=1;shadow=0;strokeWidth=1;glass=0;" vertex="1" parent="z65JshARtKWkfJrSgLsk-1">
          <mxGeometry x="38.75" y="1740" width="382.5" height="250" as="geometry" />
        </mxCell>
        <mxCell id="NKvtTAD3ne4Y98fWtQp3-55" value="&lt;div&gt;1. Online Payment Successfully done then Order Placed.&lt;/div&gt;&lt;div&gt;&lt;br&gt;&lt;/div&gt;&lt;div&gt;2.In-case of Manual Payment, Admin will confirm and then order will be Placed&lt;br&gt;&lt;/div&gt;" style="rounded=1;whiteSpace=wrap;html=1;shadow=0;strokeWidth=1;glass=0;" vertex="1" parent="z65JshARtKWkfJrSgLsk-1">
          <mxGeometry x="124.69" y="2060" width="210.62" height="120" as="geometry" />
        </mxCell>
      </root>
    </mxGraphModel>
  </diagram>
  <diagram id="Bczhog9UajlAb9pEeVVg" name="Page-3">
    <mxGraphModel dx="2713" dy="980" grid="1" gridSize="10" guides="1" tooltips="1" connect="1" arrows="1" fold="1" page="1" pageScale="1" pageWidth="850" pageHeight="1100" math="0" shadow="0">
      <root>
        <mxCell id="o45c18Qpgbp0fQ-wXTDg-0" />
        <mxCell id="o45c18Qpgbp0fQ-wXTDg-1" parent="o45c18Qpgbp0fQ-wXTDg-0" />
        <mxCell id="tQycbKEXKjLaQTFyzIni-0" value="Seller Flow" style="text;html=1;align=center;verticalAlign=middle;resizable=0;points=[];autosize=1;strokeColor=none;fillColor=none;fontStyle=1;fontSize=26;" vertex="1" parent="o45c18Qpgbp0fQ-wXTDg-1">
          <mxGeometry x="-415" y="40" width="150" height="40" as="geometry" />
        </mxCell>
        <mxCell id="tQycbKEXKjLaQTFyzIni-5" value="" style="edgeStyle=orthogonalEdgeStyle;rounded=0;orthogonalLoop=1;jettySize=auto;html=1;fontSize=17;" edge="1" parent="o45c18Qpgbp0fQ-wXTDg-1" source="tQycbKEXKjLaQTFyzIni-2" target="tQycbKEXKjLaQTFyzIni-3">
          <mxGeometry relative="1" as="geometry" />
        </mxCell>
        <mxCell id="tQycbKEXKjLaQTFyzIni-2" value="Login / Signup" style="rounded=1;whiteSpace=wrap;html=1;fontSize=12;glass=0;strokeWidth=1;shadow=0;" vertex="1" parent="o45c18Qpgbp0fQ-wXTDg-1">
          <mxGeometry x="-60" y="95" width="120" height="40" as="geometry" />
        </mxCell>
        <mxCell id="tQycbKEXKjLaQTFyzIni-9" value="" style="edgeStyle=orthogonalEdgeStyle;rounded=0;orthogonalLoop=1;jettySize=auto;html=1;fontSize=17;" edge="1" parent="o45c18Qpgbp0fQ-wXTDg-1" source="tQycbKEXKjLaQTFyzIni-3" target="tQycbKEXKjLaQTFyzIni-8">
          <mxGeometry relative="1" as="geometry" />
        </mxCell>
        <mxCell id="tQycbKEXKjLaQTFyzIni-14" value="LEADS Process" style="edgeLabel;html=1;align=center;verticalAlign=middle;resizable=0;points=[];fontSize=17;" vertex="1" connectable="0" parent="tQycbKEXKjLaQTFyzIni-9">
          <mxGeometry y="1" relative="1" as="geometry">
            <mxPoint as="offset" />
          </mxGeometry>
        </mxCell>
        <mxCell id="tQycbKEXKjLaQTFyzIni-16" value="" style="edgeStyle=orthogonalEdgeStyle;rounded=0;orthogonalLoop=1;jettySize=auto;html=1;fontSize=17;" edge="1" parent="o45c18Qpgbp0fQ-wXTDg-1" source="tQycbKEXKjLaQTFyzIni-3" target="tQycbKEXKjLaQTFyzIni-15">
          <mxGeometry relative="1" as="geometry" />
        </mxCell>
        <mxCell id="tQycbKEXKjLaQTFyzIni-17" value="Order List" style="edgeLabel;html=1;align=center;verticalAlign=middle;resizable=0;points=[];fontSize=17;" vertex="1" connectable="0" parent="tQycbKEXKjLaQTFyzIni-16">
          <mxGeometry x="-0.4041" y="2" relative="1" as="geometry">
            <mxPoint x="1" as="offset" />
          </mxGeometry>
        </mxCell>
        <mxCell id="tQycbKEXKjLaQTFyzIni-23" value="" style="edgeStyle=orthogonalEdgeStyle;rounded=0;orthogonalLoop=1;jettySize=auto;html=1;fontSize=17;" edge="1" parent="o45c18Qpgbp0fQ-wXTDg-1" source="tQycbKEXKjLaQTFyzIni-3" target="tQycbKEXKjLaQTFyzIni-22">
          <mxGeometry relative="1" as="geometry" />
        </mxCell>
        <mxCell id="tQycbKEXKjLaQTFyzIni-3" value="&lt;div&gt;Dashboard&lt;/div&gt;&lt;div&gt;Leads List&lt;/div&gt;&lt;div&gt;Orders&lt;/div&gt;&lt;div&gt;Profile&lt;/div&gt;&lt;div&gt;Customer Support&lt;br&gt;&lt;/div&gt;" style="rounded=1;whiteSpace=wrap;html=1;fontSize=12;glass=0;strokeWidth=1;shadow=0;" vertex="1" parent="o45c18Qpgbp0fQ-wXTDg-1">
          <mxGeometry x="-102.5" y="220" width="205" height="130" as="geometry" />
        </mxCell>
        <mxCell id="tQycbKEXKjLaQTFyzIni-11" value="" style="edgeStyle=orthogonalEdgeStyle;rounded=0;orthogonalLoop=1;jettySize=auto;html=1;fontSize=17;" edge="1" parent="o45c18Qpgbp0fQ-wXTDg-1" source="tQycbKEXKjLaQTFyzIni-8" target="tQycbKEXKjLaQTFyzIni-10">
          <mxGeometry relative="1" as="geometry" />
        </mxCell>
        <mxCell id="tQycbKEXKjLaQTFyzIni-8" value="&lt;div&gt;LEADS LIST&lt;/div&gt;&lt;div&gt;Complete list of all leads.&lt;/div&gt;&lt;div&gt;Filters&lt;/div&gt;&lt;div&gt;1. As per City&lt;/div&gt;&lt;div&gt;2. As per Product&lt;/div&gt;&lt;div&gt;3. Filter as per Qty&lt;/div&gt;" style="rounded=1;whiteSpace=wrap;html=1;shadow=0;strokeWidth=1;glass=0;" vertex="1" parent="o45c18Qpgbp0fQ-wXTDg-1">
          <mxGeometry x="-112.5" y="440" width="225" height="160" as="geometry" />
        </mxCell>
        <mxCell id="tQycbKEXKjLaQTFyzIni-13" value="" style="edgeStyle=orthogonalEdgeStyle;rounded=0;orthogonalLoop=1;jettySize=auto;html=1;fontSize=17;" edge="1" parent="o45c18Qpgbp0fQ-wXTDg-1" source="tQycbKEXKjLaQTFyzIni-10" target="tQycbKEXKjLaQTFyzIni-12">
          <mxGeometry relative="1" as="geometry" />
        </mxCell>
        <mxCell id="tQycbKEXKjLaQTFyzIni-10" value="&lt;div&gt;Leads Detail Page&lt;/div&gt;&lt;div&gt;&lt;br&gt;&lt;/div&gt;&lt;div&gt;Enter Price for Products in the RFQ&lt;br&gt;&lt;/div&gt;" style="rounded=1;whiteSpace=wrap;html=1;shadow=0;strokeWidth=1;glass=0;" vertex="1" parent="o45c18Qpgbp0fQ-wXTDg-1">
          <mxGeometry x="-90" y="670" width="180" height="140" as="geometry" />
        </mxCell>
        <mxCell id="tQycbKEXKjLaQTFyzIni-12" value="Confirm Biding for RFQ" style="rounded=1;whiteSpace=wrap;html=1;shadow=0;strokeWidth=1;glass=0;" vertex="1" parent="o45c18Qpgbp0fQ-wXTDg-1">
          <mxGeometry x="-85" y="880" width="170" height="120" as="geometry" />
        </mxCell>
        <mxCell id="tQycbKEXKjLaQTFyzIni-19" value="" style="edgeStyle=orthogonalEdgeStyle;rounded=0;orthogonalLoop=1;jettySize=auto;html=1;fontSize=17;" edge="1" parent="o45c18Qpgbp0fQ-wXTDg-1" source="tQycbKEXKjLaQTFyzIni-15" target="tQycbKEXKjLaQTFyzIni-18">
          <mxGeometry relative="1" as="geometry" />
        </mxCell>
        <mxCell id="tQycbKEXKjLaQTFyzIni-15" value="Orders List" style="rounded=1;whiteSpace=wrap;html=1;shadow=0;strokeWidth=1;glass=0;" vertex="1" parent="o45c18Qpgbp0fQ-wXTDg-1">
          <mxGeometry x="280" y="255" width="120" height="60" as="geometry" />
        </mxCell>
        <mxCell id="tQycbKEXKjLaQTFyzIni-21" value="" style="edgeStyle=orthogonalEdgeStyle;rounded=0;orthogonalLoop=1;jettySize=auto;html=1;fontSize=17;" edge="1" parent="o45c18Qpgbp0fQ-wXTDg-1" source="tQycbKEXKjLaQTFyzIni-18" target="tQycbKEXKjLaQTFyzIni-20">
          <mxGeometry relative="1" as="geometry" />
        </mxCell>
        <mxCell id="tQycbKEXKjLaQTFyzIni-18" value="List of all Order which are placed by Buyer and confirmed by TRUMAC" style="rounded=1;whiteSpace=wrap;html=1;shadow=0;strokeWidth=1;glass=0;" vertex="1" parent="o45c18Qpgbp0fQ-wXTDg-1">
          <mxGeometry x="260" y="410" width="160" height="135" as="geometry" />
        </mxCell>
        <mxCell id="tQycbKEXKjLaQTFyzIni-20" value="&lt;div&gt;Order Details &lt;br&gt;&lt;/div&gt;&lt;div&gt;Product Details&lt;/div&gt;&lt;div&gt;Pickup Location&lt;/div&gt;&lt;div&gt;Logistics Name &amp;amp; Mobile&lt;/div&gt;&lt;div&gt;Date of Delivery&lt;/div&gt;&lt;div&gt;Status of Order&lt;br&gt;&lt;/div&gt;" style="rounded=1;whiteSpace=wrap;html=1;shadow=0;strokeWidth=1;glass=0;" vertex="1" parent="o45c18Qpgbp0fQ-wXTDg-1">
          <mxGeometry x="240" y="610" width="200" height="170" as="geometry" />
        </mxCell>
        <mxCell id="tQycbKEXKjLaQTFyzIni-22" value="&lt;div&gt;DASHBOARD&lt;/div&gt;&lt;div&gt;Need Confirmation From Saurabh&lt;br&gt;&lt;/div&gt;" style="rounded=1;whiteSpace=wrap;html=1;shadow=0;strokeWidth=1;glass=0;" vertex="1" parent="o45c18Qpgbp0fQ-wXTDg-1">
          <mxGeometry x="-470" y="222.5" width="235" height="125" as="geometry" />
        </mxCell>
      </root>
    </mxGraphModel>
  </diagram>
</mxfile>
